<?xml version="1.0" encoding="UTF-8" standalone="no"?>
<!-- Created with Inkscape (http://www.inkscape.org/) -->

<svg
   xmlns:dc="http://purl.org/dc/elements/1.1/"
   xmlns:cc="http://creativecommons.org/ns#"
   xmlns:rdf="http://www.w3.org/1999/02/22-rdf-syntax-ns#"
   xmlns:svg="http://www.w3.org/2000/svg"
   xmlns="http://www.w3.org/2000/svg"
   xmlns:sodipodi="http://sodipodi.sourceforge.net/DTD/sodipodi-0.dtd"
   xmlns:inkscape="http://www.inkscape.org/namespaces/inkscape"
   width="35mm"
   height="28mm"
   viewBox="0 0 35 28"
   version="1.1"
   id="svg4802"
   sodipodi:docname="tfl.svg"
   inkscape:version="0.92.4 5da689c313, 2019-01-14">
  <defs
     id="defs4796" />
  <sodipodi:namedview
     id="base"
     pagecolor="#ffffff"
     bordercolor="#666666"
     borderopacity="1.0"
     inkscape:pageopacity="0.0"
     inkscape:pageshadow="2"
     inkscape:zoom="1.979899"
     inkscape:cx="-5.857104"
     inkscape:cy="63.71021"
     inkscape:document-units="mm"
     inkscape:current-layer="layer4"
     showgrid="false"
     inkscape:window-width="1920"
     inkscape:window-height="1040"
     inkscape:window-x="0"
     inkscape:window-y="21"
     inkscape:window-maximized="1"
     fit-margin-top="0"
     fit-margin-left="0"
     fit-margin-right="0"
     fit-margin-bottom="0" />
  <metadata
     id="metadata4799">
    <rdf:RDF>
      <cc:Work
         rdf:about="">
        <dc:format>image/svg+xml</dc:format>
        <dc:type
           rdf:resource="http://purl.org/dc/dcmitype/StillImage" />
        <dc:title></dc:title>
      </cc:Work>
    </rdf:RDF>
  </metadata>
  <g
     inkscape:groupmode="layer"
     id="layer4"
     inkscape:label="Layer 2">
    <path
       style="fill:#000000;fill-opacity:1;stroke:none;stroke-width:0.26458332px;stroke-linecap:butt;stroke-linejoin:miter;stroke-opacity:1"
       d="m 17.89665,0.32202 c -11.2447915,0 -13.3707596,10.96161 -13.3707596,10.96161 h -3.6855632 l -0.047026,5.29167 h 3.7325887 c 0,0 2.5733386,11.10268 13.2984131,11.10268 10.725073,0 13.349057,-11.10268 13.349057,-11.10268 h 3.82664 v -5.24465 h -3.82664 c 0,0 -2.031917,-11.00863 -13.27671,-11.00863 z m -0.01447,4.63331 c 5.980155,0 8.385536,6.24718 8.385536,6.24718 h -16.8713225 c 0,0 2.0713205,-6.24718 8.4857865,-6.24718 z m -8.5648515,11.70987 h 16.8713225 c 0,0 -2.07132,6.24718 -8.485788,6.24718 -5.980154,0 -8.3855345,-6.24718 -8.3855345,-6.24718 z"
       id="path4815"
       inkscape:connector-curvature="0" />
  </g>
</svg>
