<?xml version="1.0" encoding="UTF-8" standalone="no"?>
<!-- Created with Inkscape (http://www.inkscape.org/) -->

<svg
   xmlns:dc="http://purl.org/dc/elements/1.1/"
   xmlns:cc="http://creativecommons.org/ns#"
   xmlns:rdf="http://www.w3.org/1999/02/22-rdf-syntax-ns#"
   xmlns:svg="http://www.w3.org/2000/svg"
   xmlns="http://www.w3.org/2000/svg"
   xmlns:sodipodi="http://sodipodi.sourceforge.net/DTD/sodipodi-0.dtd"
   xmlns:inkscape="http://www.inkscape.org/namespaces/inkscape"
   width="1cm"
   height="1cm"
   viewBox="0 0 9.9999998 10"
   version="1.1"
   id="svg8"
   inkscape:version="0.92.4 5da689c313, 2019-01-14"
   sodipodi:docname="ucl.svg">
  <defs
     id="defs2" />
  <sodipodi:namedview
     id="base"
     pagecolor="#ffffff"
     bordercolor="#666666"
     borderopacity="1.0"
     inkscape:pageopacity="0.0"
     inkscape:pageshadow="2"
     inkscape:zoom="13.364318"
     inkscape:cx="16.999559"
     inkscape:cy="16.345594"
     inkscape:document-units="cm"
     inkscape:current-layer="layer3"
     showgrid="false"
     fit-margin-top="0"
     fit-margin-left="0"
     fit-margin-right="0"
     fit-margin-bottom="0"
     inkscape:window-width="1920"
     inkscape:window-height="1040"
     inkscape:window-x="0"
     inkscape:window-y="21"
     inkscape:window-maximized="1"
     units="cm" />
  <metadata
     id="metadata5">
    <rdf:RDF>
      <cc:Work
         rdf:about="">
        <dc:format>image/svg+xml</dc:format>
        <dc:type
           rdf:resource="http://purl.org/dc/dcmitype/StillImage" />
        <dc:title></dc:title>
      </cc:Work>
    </rdf:RDF>
  </metadata>
  <g
     inkscape:groupmode="layer"
     id="layer3"
     inkscape:label="a">
    <path
       style="fill:#000000;fill-opacity:1;stroke-width:0.37505156"
       d="m 5.0007282,-0.01395264 c 0,0 -0.039791,0.05485966 -0.039791,0.06872966 v 0.02945556 c 0,0.0098 0.0039,0.01240234 0.00878,0.01240234 0.010877,0 0.014193,0.0217041 -0.00568,0.0217041 -0.021378,0 -0.031006,0.0180185 -0.031006,0.0273885 v 0.0165365 c 0,0.01313 -0.078427,0.10193028 -0.1560626,0.16381429 -0.010126,0.0079 -0.017778,0.0124526 -0.027905,0.0139526 h -0.022738 c -0.00675,0 -0.010852,0.004735 -0.010852,0.0103353 v 0.0444417 c 0,0.006 0.00523,0.0103353 0.010852,0.0103353 h 0.018604 c 0.0075,0.0019 0.014469,0.0115562 0.014469,0.0325562 0,0.021 -0.00603,0.0302097 -0.012402,0.0335897 h -0.021187 c -0.006,0 -0.010335,0.004872 -0.010335,0.010852 v 0.0434082 c 0,0.006 0.00546,0.0113688 0.010335,0.0113688 h 0.00362 c 0.00375,3.75e-4 0.00367,0 0.00517,0 0.010126,0 0.022738,-0.001964 0.022738,0.0134359 V 1.0071736 c -0.013127,0.0064 -0.030489,0.018411 -0.030489,0.039791 v 0.037724 c 0,0.009 -0.00793,0.023771 -0.024805,0.023771 H 4.632275 c -0.015377,0 -0.025321,0.012374 -0.025321,0.023254 v 0.073897 c 0,0.0075 0.00862,0.01677 0.01912,0.01602 0.035255,-0.0011 0.058911,0.00888 0.058911,0.03514 v 0.028422 c 0,0.02363 -0.024014,0.034778 -0.050643,0.043408 -0.051382,0.01763 -0.1680485,0.048886 -0.1710489,0.1317749 -0.1942769,0.08964 -0.5450996,0.2827056 -0.797884,0.6630086 -0.3236696,0.442561 -0.2931057,1.0547536 -0.2961061,1.1410157 0,0.018 -0.013511,0.029456 -0.027389,0.029456 H 3.30419 c -0.016127,0 -0.01602,0.013953 -0.01602,0.013953 v 0.063045 c 0,0 1.074e-4,0.01602 -0.016019,0.01602 H 3.208072 c 0,0 -0.01602,-6e-5 -0.01602,0.01757 v 0.068729 c 0,0 5.72e-5,0.013953 -0.01757,0.013953 H 3.11092 c 0,0 -0.018087,-2.934e-4 -0.018087,0.018087 v 0.073381 c 0,0.0083 0.00523,0.010152 0.010852,0.010852 0.019128,0.0026 0.057361,0.019632 0.057361,0.062012 0,0.07201 0.043868,0.079065 0.061495,0.079065 v 0.2661337 c 0,0.06226 -0.048445,0.086267 -0.075448,0.093018 -0.006,7.501e-4 -0.012402,0.00749 -0.012402,0.014986 v 0.2733683 l 1.8686197,-0.412378 h 0.00362 l 1.8691365,0.412378 v -0.27337 c 0,-0.0079 -0.00758,-0.013866 -0.013953,-0.014986 -0.027004,-0.0068 -0.074414,-0.031137 -0.074414,-0.093018 V 3.7305214 c 0.018377,0 0.061495,-0.00703 0.061495,-0.079065 0,-0.04201 0.039217,-0.059382 0.056844,-0.062012 0.00675,-7.498e-4 0.011886,-0.00265 0.011886,-0.010852 v -0.073381 c 0,-0.018 -0.01757,-0.018087 -0.01757,-0.018087 h -0.0031 -0.063562 c -0.016877,0 -0.016536,-0.013436 -0.016536,-0.013436 v -0.068729 c 0,-0.01763 -0.01757,-0.018087 -0.01757,-0.018087 H 6.737573 c -0.017627,0 -0.017053,-0.015503 -0.017053,-0.015503 v -0.063562 c 0,0 1.071e-4,-0.013953 -0.01602,-0.013953 H 6.666776 c -0.013127,0 -0.026639,-0.010569 -0.027389,-0.028939 C 6.635637,3.1786554 6.666717,2.5672108 6.3437977,2.1238998 6.0895134,1.7435993 5.7399579,1.5512797 5.5464313,1.4608927 5.5426811,1.3780027 5.4257308,1.346603 5.3743487,1.328601 5.3473448,1.320001 5.3237059,1.3088228 5.3237059,1.2851928 v -0.027905 c 0,-0.0255 0.022764,-0.03627 0.058394,-0.03514 0.010126,7.5e-4 0.01912,-0.00901 0.01912,-0.016536 v -0.073897 c 0,-0.0105 -0.00943,-0.022738 -0.024805,-0.022738 h -0.069763 c -0.016877,0 -0.024805,-0.015151 -0.024805,-0.023771 v -0.037724 c 0,-0.02175 -0.016846,-0.034308 -0.029973,-0.040308 V 0.55087073 c 0,-0.01538 0.01172,-0.0134359 0.022221,-0.0134359 0,0 0.00367,-1.4176e-4 0.00517,-5.1676e-4 0.006,0 0.010852,-0.005202 0.010852,-0.0108521 v -0.043925 c 0,-0.0064 -0.00523,-0.010852 -0.010852,-0.010852 h -0.020671 c -0.0075,-0.0034 -0.012402,-0.0120729 -0.012402,-0.0330729 0,-0.021 0.00688,-0.0310562 0.015503,-0.0325562 h 0.018087 c 0.006,0 0.010852,-0.005252 0.010852,-0.0108521 v -0.0444417 c 0,-0.006 -0.00523,-0.0103353 -0.010852,-0.0103353 h -0.022737 c -0.010126,-0.0015 -0.018529,-0.006073 -0.027905,-0.0139526 C 5.1515039,0.26456817 5.073077,0.17614088 5.073077,0.16226388 v -0.0165365 c 0,-0.0094 -0.00912,-0.0273885 -0.030489,-0.0273885 -0.021378,0 -0.017878,-0.0217041 -0.00775,-0.0217041 0.00788,0 0.00878,-0.0023023 0.00878,-0.01240234 V 0.05477702 c 0,-0.01313 -0.039274,-0.06872966 -0.039274,-0.06872966 z m -0.00155,4.28966034 c 0,0 -4.0693941,0.8749324 -4.07727019,0.8764323 -0.022128,0.0045 -0.0144694,0.023255 -0.0144694,0.023255 l 0.0558105,0.2087726 0.0118856,-5.167e-4 -0.003617,5.167e-4 c 0,0 0.0627471,-0.00803 0.10025219,0.050126 l 0.060978,0.3353803 c 0,0 5.17e-5,0.023254 0.024805,0.023254 h 0.1477946 0.034107 v 0.098702 c 0,0.006 0.0039,0.0093 0.00878,0.0093 h 0.026355 c 0.012377,0 0.012919,0.012668 0.012919,0.024288 0,0.01575 0.00782,0.096456 0.064079,0.1452107 0.0075,0.0071 0.00424,0.025838 -0.011886,0.025838 h -0.019637 c -0.013877,0 -0.014836,0.00957 -0.010335,0.017053 0.00525,0.0094 0.0062,0.037376 0.0062,0.050126 v 0.044958 c 0,0.0079 -7.83e-5,0.014986 0.0093,0.014986 h 0.00878 c 0,0 0.00672,-6.651e-4 0.00672,0.00723 v 0.00878 2.2784137 c -0.00675,0.0075 -0.030822,0.031573 -0.033073,0.033073 -0.00375,0.0023 -0.00362,0.00527 -0.00362,0.00827 v 0.038758 c 0,0.003 -3.841e-4,0.00707 -0.00413,0.00827 -0.00375,0.0019 -0.00639,0.00258 -0.00827,0.00258 h -0.028939 c -0.00525,0 -0.0093,0.0044 -0.0093,0.0093 v 0.066146 h 0.00155 V 8.9152175 H 1.0345621 V 9.4614376 H 0.71313473 v 0.5519044 l 8.57363637,5.16e-4 V 9.4619543 H 8.9653439 V 8.9157345 H 8.6454666 V 8.6769893 h -0.00103 v -0.058911 c 0,-0.0053 -0.00414,-0.0093 -0.00827,-0.0093 h -0.028939 c -0.00375,0 -0.00639,-7.337e-4 -0.00827,-0.00258 0,-0.0015 -0.00413,-0.00557 -0.00413,-0.00827 v -0.037724 c 0,-0.003 1.325e-4,-0.00515 -0.00362,-0.00775 -0.00375,-0.0034 -0.023321,-0.02308 -0.033073,-0.03359 v -2.2789307 -0.00879 c 0,-0.0075 0.0062,-0.00672 0.0062,-0.00672 h 0.00879 c 0.00788,0 0.0093,-0.00709 0.0093,-0.014986 v -0.045475 c 0,-0.01275 0.00372,-0.040229 0.00672,-0.049609 0.00525,-0.0079 0.00377,-0.017053 -0.010852,-0.017053 h -0.018604 c -0.017627,0 -0.019903,-0.019985 -0.012402,-0.026355 0.057008,-0.04651 0.063045,-0.1272497 0.063045,-0.1426268 0,-0.01388 3.59e-4,-0.026355 0.014986,-0.026355 l 0.026355,-0.00103 c 0.0045,0 0.00775,-0.0037 0.00775,-0.0093 v -0.098702 h 0.029972 0.1488281 c 0.020253,0 0.022738,-0.017053 0.022738,-0.017053 l 0.060978,-0.3358967 c 0.035255,-0.06563 0.1028361,-0.056327 0.1028361,-0.056327 h 0.010335 l 0.056327,-0.2087727 c 0,3.749e-4 0.00945,-0.018238 -0.013436,-0.022738 -0.014627,-0.003 -4.0788207,-0.8764323 -4.0788207,-0.8764323 z m -3.0220375,1.51722 h 0.699699 v 0.098702 c 0,0.006 0.00339,0.0093 0.00827,0.0093 h 0.025838 c 0.012377,0 0.012919,0.012668 0.012919,0.024288 0,0.01575 0.00797,0.096456 0.064595,0.1452107 0.0075,0.0071 0.00447,0.025838 -0.012402,0.025838 h -0.01912 c -0.014627,0 -0.015353,0.00957 -0.010852,0.017053 0.00525,0.0094 0.00672,0.037376 0.00672,0.050126 v 0.044958 c 0,0.0079 -7.83e-5,0.014986 0.0093,0.014986 h 0.00827 c 0,0 0.00723,-6.651e-4 0.00723,0.00723 v 0.00878 2.2784137 c -0.0075,0.0075 -0.031572,0.031573 -0.033073,0.033073 -0.00375,0.0023 -0.00465,0.00527 -0.00465,0.00827 v 0.038758 c 0,0.003 1.325e-4,0.00707 -0.00362,0.00827 0,0.0019 -0.00512,0.00258 -0.00775,0.00258 h -0.027905 c -0.006,0 -0.0093,0.0044 -0.0093,0.0093 v 0.058911 H 1.960087 v -0.058911 c 0,-0.0053 -0.0039,-0.0093 -0.00878,-0.0093 H 1.922368 c -0.00375,0 -0.007,-7.337e-4 -0.00775,-0.00258 -0.00375,-0.0015 -0.00362,-0.00557 -0.00362,-0.00827 v -0.037724 c 0,-0.003 1.326e-4,-0.00515 -0.00362,-0.00775 -0.00375,-0.0034 -0.023604,-0.02308 -0.034106,-0.03359 v -2.2789307 -0.00879 c 0,-0.0075 0.0062,-0.00672 0.0062,-0.00672 h 0.00775 c 0.00863,0 0.010335,-0.00709 0.010335,-0.014986 v -0.045475 c 0,-0.01275 -2.653e-4,-0.040229 0.00723,-0.049609 0.00375,-0.0079 0.00377,-0.017053 -0.010852,-0.017053 h -0.01912 c -0.018378,0 -0.01962,-0.019985 -0.011369,-0.026355 0.056258,-0.04651 0.062012,-0.1272497 0.062012,-0.1426268 0,-0.01388 -1.576e-4,-0.026355 0.014469,-0.026355 l 0.027905,-0.00103 c 0.00525,0 0.0093,-0.0037 0.0093,-0.0093 z m 1.3358356,0 h 0.7002158 v 0.098702 c 0,0.006 0.00414,0.0093 0.00827,0.0093 h 0.025838 c 0.012377,0 0.013436,0.012668 0.013436,0.024288 0,0.01575 0.0073,0.096456 0.063562,0.1452107 0.0075,0.0071 0.00476,0.025838 -0.011369,0.025838 h -0.01912 c -0.014627,0 -0.015352,0.00957 -0.010852,0.017053 0.00525,0.0094 0.00672,0.037376 0.00672,0.050126 v 0.044958 c 0,0.0079 -7.81e-5,0.014986 0.0093,0.014986 h 0.00879 c 0,0 0.00672,-6.651e-4 0.00672,0.00723 v 0.00878 2.2784137 c -0.00675,0.0075 -0.031855,0.031573 -0.034106,0.033073 0,0.0023 -0.00362,0.00527 -0.00362,0.00827 v 0.038758 c 0,0.003 1.326e-4,0.00707 -0.00362,0.00827 -0.00375,0.0019 -0.00587,0.00258 -0.00775,0.00258 h -0.028939 c -0.00525,0 -0.00827,0.0044 -0.00827,0.0093 v 0.058911 H 3.2969563 v -0.058911 c 0,-0.0053 -0.00362,-0.0093 -0.00775,-0.0093 h -0.029456 c -0.00375,0 -0.00587,-7.337e-4 -0.00775,-0.00258 -0.00375,-0.0015 -0.00362,-0.00557 -0.00362,-0.00827 v -0.037724 c 0,-0.003 1.326e-4,-0.00515 -0.00362,-0.00775 -0.00375,-0.0034 -0.023605,-0.02308 -0.034106,-0.03359 v -2.2789307 -0.00879 c 0,-0.0075 0.00672,-0.00672 0.00672,-0.00672 h 0.00827 c 0.00863,0 0.0093,-0.00709 0.0093,-0.014986 v -0.045475 c 0,-0.01275 0.00348,-0.040229 0.00723,-0.049609 0.00525,-0.0079 0.00378,-0.017053 -0.010852,-0.017053 h -0.01912 c -0.017628,0 -0.01962,-0.019985 -0.011369,-0.026355 0.057008,-0.04651 0.063045,-0.1272497 0.063045,-0.1426268 0,-0.01388 -4.413e-4,-0.026355 0.013436,-0.026355 l 0.027388,-0.00103 c 0.00525,0 0.00827,-0.0037 0.00827,-0.0093 z m 1.3373861,0 H 5.349544 v 0.098702 c 0,0.006 0.00391,0.0093 0.00879,0.0093 h 0.026872 c 0.010877,0 0.011886,0.012668 0.011886,0.024288 0,0.01575 0.00797,0.096456 0.064595,0.1452107 0.0075,0.0071 0.00424,0.025838 -0.011886,0.025838 h -0.01912 c -0.014627,0 -0.015353,0.00957 -0.010852,0.017053 0.00525,0.0094 0.00672,0.037376 0.00672,0.050126 v 0.044958 c 0,0.0079 -1.286e-4,0.014986 0.00775,0.014986 h 0.00879 c 0,0 0.00775,-6.651e-4 0.00775,0.00723 v 0.00878 2.2784137 c -0.0075,0.0075 -0.031339,0.031573 -0.03359,0.033073 -0.00375,0.0023 -0.00465,0.00527 -0.00465,0.00827 v 0.038758 c 0,0.003 1.328e-4,0.00707 -0.00362,0.00827 -0.00375,0.0019 -0.00587,0.00258 -0.00775,0.00258 H 5.372807 c -0.0045,0 -0.00878,0.0044 -0.00878,0.0093 v 0.058911 H 4.633839 v -0.058911 c 0,-0.0053 -0.00391,-0.0093 -0.00879,-0.0093 H 4.596627 c -0.00375,0 -0.00691,-7.337e-4 -0.00878,-0.00258 0,-0.0015 -0.00362,-0.00557 -0.00362,-0.00827 v -0.037724 c 0,-0.003 1.326e-4,-0.00515 -0.00362,-0.00775 -0.00375,-0.0034 -0.022946,-0.02308 -0.033073,-0.03359 v -2.2789307 -0.00879 c 0,-0.0075 0.00672,-0.00672 0.00672,-0.00672 h 0.00878 c 0.0075,0 0.00827,-0.00709 0.00827,-0.014986 v -0.045475 c 0,-0.01275 0.004,-0.040229 0.00775,-0.049609 0.0045,-0.0079 0.00377,-0.017053 -0.010852,-0.017053 H 4.549598 c -0.018378,0 -0.020653,-0.019985 -0.012402,-0.026355 0.057008,-0.04651 0.063045,-0.1272497 0.063045,-0.1426268 0,-0.01388 7.57e-5,-0.026355 0.013953,-0.026355 l 0.027389,-0.00103 c 0.00525,0 0.00878,-0.0037 0.00878,-0.0093 z m 1.3358357,0 h 0.7002155 v 0.098702 c 0,0.006 0.0039,0.0093 0.00879,0.0093 H 6.72207 c 0.011627,0 0.012402,0.012668 0.012402,0.024288 0,0.01575 0.00754,0.096456 0.063045,0.1452107 0.0075,0.0071 0.00528,0.025838 -0.010852,0.025838 h -0.01912 c -0.014627,0 -0.016386,0.00957 -0.011886,0.017053 0.006,0.0094 0.00672,0.037376 0.00672,0.050126 v 0.044958 c 0,0.0079 -7.84e-5,0.014986 0.0093,0.014986 h 0.00879 c 0,0 0.00672,-6.651e-4 0.00672,0.00723 v 0.00878 2.2784137 c -0.0075,0.0075 -0.032089,0.031573 -0.03359,0.033073 -0.00375,0.0023 -0.00362,0.00527 -0.00362,0.00827 v 0.038758 c 0,0.003 -3.842e-4,0.00707 -0.00413,0.00827 0,0.0019 -0.00423,0.00258 -0.00723,0.00258 H 6.709163 c -0.0045,0 -0.00775,0.0044 -0.00775,0.0093 v 0.058911 H 5.9696612 v -0.058911 c 0,-0.0053 -0.00466,-0.0093 -0.00878,-0.0093 h -0.028422 c -0.00375,0 -0.00714,-7.337e-4 -0.00827,-0.00258 0,-0.0015 -0.00413,-0.00557 -0.00413,-0.00827 v -0.037724 c 0,-0.003 1.325e-4,-0.00515 -0.00362,-0.00775 -0.00375,-0.0034 -0.022713,-0.02308 -0.03359,-0.03359 v -2.2789307 -0.00879 c 0,-0.0075 0.00672,-0.00672 0.00672,-0.00672 h 0.00775 c 0.00863,0 0.0093,-0.00709 0.0093,-0.014986 v -0.045475 c 0,-0.01275 0.00362,-0.040229 0.00775,-0.049609 0.00375,-0.0079 0.00377,-0.017053 -0.010852,-0.017053 h -0.01912 c -0.017627,0 -0.020603,-0.019985 -0.010852,-0.026355 0.056258,-0.04651 0.061495,-0.1272497 0.061495,-0.1426268 0,-0.01388 3.591e-4,-0.026355 0.014986,-0.026355 l 0.028422,-0.00103 c 0.00525,0 0.00775,-0.0037 0.00775,-0.0093 z m 1.3379029,0 h 0.6986653 v 0.098702 c 0,0.006 0.00517,0.0093 0.0093,0.0093 h 0.026355 c 0.011627,0 0.012919,0.012668 0.012919,0.024288 0,0.01575 0.00679,0.096456 0.063045,0.1452107 0.0075,0.0071 0.00626,0.025838 -0.011369,0.025838 h -0.01912 c -0.013877,0 -0.014836,0.00957 -0.010335,0.017053 0.00525,0.0094 0.00672,0.037376 0.00672,0.050126 v 0.044958 c 0,0.0079 1.55e-4,0.014986 0.00879,0.014986 h 0.00878 c 0,0 0.00672,-6.651e-4 0.00672,0.00723 v 0.00878 2.2784137 c -0.0075,0.0075 -0.030822,0.031573 -0.033073,0.033073 0,0.0023 -0.00465,0.00527 -0.00465,0.00827 v 0.038758 c 0,0.003 1.326e-4,0.00707 -0.00362,0.00827 0,0.0019 -0.00512,0.00258 -0.00775,0.00258 h -0.028939 c -0.006,0 -0.0093,0.0044 -0.0093,0.0093 v 0.058911 h -0.730192 v -0.058911 c 0,-0.0053 -0.00466,-0.0093 -0.00879,-0.0093 H 7.26984 c -0.00375,0 -0.00714,-7.337e-4 -0.00827,-0.00258 -0.00375,-0.0015 -0.00413,-0.00557 -0.00413,-0.00827 v -0.037724 c 0,-0.003 1.326e-4,-0.00515 -0.00362,-0.00775 -0.00375,-0.0034 -0.022946,-0.02308 -0.033073,-0.03359 v -2.2789307 -0.00879 c 0,-0.0075 0.00672,-0.00672 0.00672,-0.00672 h 0.00827 c 0.00788,0 0.00827,-0.00709 0.00827,-0.014986 v -0.045475 c 0,-0.01275 0.00362,-0.040229 0.00775,-0.049609 0.00375,-0.0079 0.00401,-0.017053 -0.011369,-0.017053 H 7.221785 c -0.017627,0 -0.01962,-0.019985 -0.011369,-0.026355 0.057008,-0.04651 0.063045,-0.1272497 0.063045,-0.1426268 0,-0.01388 7.57e-5,-0.026355 0.013953,-0.026355 l 0.027905,-0.00103 c 0.0045,0 0.00879,-0.0037 0.00879,-0.0093 z"
       id="path4664"
       inkscape:connector-curvature="0" />
  </g>
</svg>
